<?xml version="1.0" encoding="UTF-8"?>
<svg xmlns="http://www.w3.org/2000/svg" xmlns:xlink="http://www.w3.org/1999/xlink" width="375px" height="375px" viewBox="0 0 375 375" version="1.1">
<g id="surface1">
<path style=" stroke:none;fill-rule:nonzero;fill:rgb(32.54902%,50.980392%,63.137255%);fill-opacity:1;" d="M 120.929688 289.890625 C 120.929688 289.890625 101.59375 298.210938 134.6875 301.023438 C 174.777344 304.410156 195.269531 303.921875 239.449219 297.734375 C 239.449219 297.734375 251.066406 303.125 267.285156 307.792969 C 168.246094 339.199219 43.136719 305.972656 120.929688 289.890625 "/>
<path style=" stroke:none;fill-rule:nonzero;fill:rgb(32.54902%,50.980392%,63.137255%);fill-opacity:1;" d="M 108.828125 248.90625 C 108.828125 248.90625 87.140625 260.785156 120.257812 263.320312 C 163.085938 266.585938 196.90625 266.855469 255.429688 258.515625 C 255.429688 258.515625 263.523438 264.589844 276.253906 267.910156 C 156.507812 293.816406 23.128906 269.953125 108.828125 248.90625 "/>
<path style=" stroke:none;fill-rule:nonzero;fill:rgb(90.588235%,43.529412%,0%);fill-opacity:1;" d="M 210.851562 179.386719 C 235.257812 200.175781 204.441406 218.882812 204.441406 218.882812 C 204.441406 218.882812 266.40625 195.214844 237.949219 165.578125 C 211.367188 137.9375 190.988281 124.207031 301.328125 76.859375 C 301.328125 76.859375 128.128906 108.863281 210.851562 179.386719 "/>
<path style=" stroke:none;fill-rule:nonzero;fill:rgb(32.54902%,50.980392%,63.137255%);fill-opacity:1;" d="M 341.84375 320.203125 C 341.84375 320.203125 356.148438 328.925781 326.085938 335.675781 C 268.917969 348.488281 88.148438 352.355469 37.929688 336.183594 C 19.878906 330.375 53.730469 322.3125 64.378906 320.617188 C 75.484375 318.835938 81.832031 319.167969 81.832031 319.167969 C 61.753906 308.707031 -47.929688 339.714844 26.117188 348.59375 C 228.050781 372.824219 394.21875 337.683594 341.84375 320.203125 "/>
<path style=" stroke:none;fill-rule:nonzero;fill:rgb(32.54902%,50.980392%,63.137255%);fill-opacity:1;" d="M 130.226562 206.445312 C 130.226562 206.445312 38.273438 222.605469 97.664062 228.472656 C 122.738281 230.957031 172.726562 230.394531 219.289062 227.507812 C 257.34375 225.132812 295.554688 220.082031 295.554688 220.082031 C 295.554688 220.082031 282.136719 224.335938 272.429688 229.238281 C 179.054688 247.410156 -1.328125 238.957031 50.601562 220.371094 C 94.519531 204.664062 130.226562 206.445312 130.226562 206.445312 "/>
<path style=" stroke:none;fill-rule:nonzero;fill:rgb(32.54902%,50.980392%,63.137255%);fill-opacity:1;" d="M 295.175781 274.664062 C 390.09375 238.167969 346.207031 203.097656 315.574219 207.824219 C 308.066406 208.980469 304.71875 209.980469 304.71875 209.980469 C 304.71875 209.980469 307.507812 206.75 312.832031 205.351562 C 373.433594 189.589844 420.039062 251.84375 293.269531 276.503906 C 293.269531 276.503906 294.738281 275.53125 295.175781 274.664062 "/>
<path style=" stroke:none;fill-rule:nonzero;fill:rgb(90.588235%,43.529412%,0%);fill-opacity:1;" d="M 237.949219 0.402344 C 237.949219 0.402344 290.515625 39.308594 188.089844 99.140625 C 105.953125 147.132812 169.359375 174.496094 188.054688 205.761719 C 140.109375 173.753906 104.925781 145.582031 128.53125 119.359375 C 163.175781 80.867188 259.15625 62.203125 237.949219 0.402344 "/>
<path style=" stroke:none;fill-rule:nonzero;fill:rgb(32.54902%,50.980392%,63.137255%);fill-opacity:1;" d="M 139.554688 373.554688 C 230.664062 377.867188 370.578125 371.160156 373.890625 339.261719 C 373.890625 339.261719 367.519531 351.355469 298.589844 360.957031 C 220.824219 371.785156 124.914062 370.519531 68.027344 363.582031 C 68.027344 363.582031 79.671875 370.710938 139.554688 373.554688 "/>
</g>
</svg>
