<?xml version="1.0" encoding="UTF-8"?>
<svg xmlns="http://www.w3.org/2000/svg" xmlns:xlink="http://www.w3.org/1999/xlink" width="375px" height="375px" viewBox="0 0 375 375" version="1.1">
<g id="surface1">
<path style=" stroke:none;fill-rule:nonzero;fill:rgb(100%,100%,100%);fill-opacity:1;" d="M 359.617188 187.5 C 359.617188 282.558594 282.558594 359.617188 187.5 359.617188 C 92.441406 359.617188 15.382812 282.558594 15.382812 187.5 C 15.382812 92.441406 92.441406 15.382812 187.5 15.382812 C 282.558594 15.382812 359.617188 92.441406 359.617188 187.5 Z M 359.617188 187.5 "/>
<path style="fill-rule:nonzero;fill:rgb(0%,0%,0%);fill-opacity:1;stroke-width:5;stroke-linecap:butt;stroke-linejoin:miter;stroke:rgb(0%,0%,0%);stroke-opacity:1;stroke-miterlimit:4;" d="M 255.562667 20.010667 C 193.184 20.122667 133.392 44.928 89.258667 89.002667 C -2.976 181.093333 -3.093333 330.517333 88.997333 422.752 C 181.088 514.986667 330.517333 515.104 422.746667 423.013333 C 514.986667 330.922667 515.098667 181.493333 423.008 89.264 C 378.634667 44.816 318.368 19.893333 255.562667 20.005333 Z M 257.84 21.013333 C 317.776 21.498667 377.232 44.821333 422.298667 89.968 C 514 181.813333 513.888 330.608 422.042667 422.309333 C 376.117333 468.16 301.722667 468.101333 255.872 422.176 C 210.021333 376.256 210.08 301.856 256 256.005333 C 302.410667 209.669333 302.474667 134.48 256.133333 88.069333 C 219.045333 50.928 161.674667 41.514667 115.472 66.410667 C 157.888 34.869333 208.181333 20.613333 257.84 21.013333 Z M 67.002667 151.274667 L 107.002667 151.274667 C 116.944 193.418667 132.202667 230.693333 147.749333 267.701333 C 163.653333 226.378667 180.954667 186.453333 203.002667 151.274667 L 243.002667 151.274667 C 194.074667 248.64 140.810667 315.333333 219.002667 401.274667 L 179.002667 401.274667 C 131.434667 324.032 96.56 253.605333 67.002667 151.274667 Z M 67.002667 151.274667 " transform="matrix(0.732422,0,0,0.732422,0,0)"/>
<path style=" stroke:none;fill-rule:nonzero;fill:rgb(0%,0%,0%);fill-opacity:1;" d="M 214.601562 81.09375 C 271.871094 144.035156 232.859375 192.890625 197.023438 264.199219 L 226.320312 264.199219 C 242.464844 238.433594 255.140625 209.191406 266.785156 178.921875 C 278.171875 206.03125 289.347656 233.328125 296.632812 264.199219 L 325.929688 264.199219 C 304.277344 189.25 278.734375 137.667969 243.898438 81.09375 Z M 214.601562 81.09375 "/>
</g>
</svg>
