<svg width="103" height="123" viewBox="0 0 103 123" fill="none" xmlns="http://www.w3.org/2000/svg">
<g filter="url(#filter0_d_1_3)">
<path d="M4.59549 4.62085C3.9637 2.15164 6.50403 0.0692529 8.80129 1.17323L93.2388 41.7508C95.6799 42.9239 95.4396 46.4754 92.8628 47.3091L70.4918 54.5468C68.401 55.2232 67.723 57.8438 69.2233 59.4494L97.8865 90.1235C99.0429 91.3611 98.9462 93.3099 97.673 94.4269L82.1993 108.002C80.9759 109.076 79.1197 108.978 78.016 107.782L47.7775 75.0101C46.402 73.5194 43.9743 73.795 42.9679 75.5561L32.675 93.5688C31.3376 95.9092 27.8321 95.4354 27.1639 92.824L4.59549 4.62085Z" fill="#D9D9D9"/>
<path d="M7.01746 4.00115C6.91217 3.58961 7.33555 3.24255 7.71843 3.42655L92.1559 44.0041C92.2911 44.069 92.3485 44.1412 92.3807 44.2C92.42 44.2716 92.4461 44.3721 92.4382 44.4885C92.4303 44.6049 92.391 44.701 92.3424 44.7667C92.3025 44.8206 92.2359 44.8843 92.0933 44.9305L69.7222 52.1682C65.8892 53.4083 64.6461 58.2127 67.3966 61.1563L96.0599 91.8304C96.2526 92.0367 96.2365 92.3615 96.0243 92.5477L80.5506 106.123C80.3467 106.302 80.0373 106.286 79.8534 106.086L49.6148 73.3148C47.093 70.5818 42.6423 71.0871 40.7973 74.3158L30.5044 92.3284C30.4306 92.4575 30.3549 92.5098 30.2939 92.5381C30.2198 92.5724 30.1182 92.5914 30.0033 92.5759C29.8884 92.5603 29.7955 92.515 29.7332 92.4623C29.6818 92.4189 29.6227 92.3484 29.5859 92.2043L7.01746 4.00115Z" stroke="black" stroke-width="5"/>
</g>
<defs>
<filter id="filter0_d_1_3" x="0.497437" y="0.869843" width="102.197" height="121.878" filterUnits="userSpaceOnUse" color-interpolation-filters="sRGB">
<feFlood flood-opacity="0" result="BackgroundImageFix"/>
<feColorMatrix in="SourceAlpha" type="matrix" values="0 0 0 0 0 0 0 0 0 0 0 0 0 0 0 0 0 0 127 0" result="hardAlpha"/>
<feOffset dy="10"/>
<feGaussianBlur stdDeviation="2"/>
<feComposite in2="hardAlpha" operator="out"/>
<feColorMatrix type="matrix" values="0 0 0 0 0 0 0 0 0 0 0 0 0 0 0 0 0 0 0.25 0"/>
<feBlend mode="normal" in2="BackgroundImageFix" result="effect1_dropShadow_1_3"/>
<feBlend mode="normal" in="SourceGraphic" in2="effect1_dropShadow_1_3" result="shape"/>
</filter>
</defs>
</svg>
