<?xml version="1.0" encoding="UTF-8"?>
<svg xmlns="http://www.w3.org/2000/svg" xmlns:xlink="http://www.w3.org/1999/xlink" width="256px" height="431px" viewBox="0 0 128 215" version="1.1">
<g id="surface1">
<path style=" stroke:none;fill-rule:nonzero;fill:rgb(0%,65.882353%,41.960784%);fill-opacity:1;" d="M 49.09375 151.066406 L 109.902344 163.992188 L 109.902344 50.535156 L 49.09375 63.410156 Z M 128.003906 187.589844 L 34.515625 162.382812 L 34.515625 52.058594 L 127.867188 27.03125 L 128 187.597656 Z M 128.003906 187.589844 "/>
<path style=" stroke:none;fill-rule:nonzero;fill:rgb(0%,65.882353%,41.960784%);fill-opacity:1;" d="M 89.660156 0 L 0 32.445312 L 0 182.171875 L 89.660156 214.621094 Z M 15.976562 173.378906 L 15.976562 41.25 L 71.753906 24.074219 L 71.753906 190.550781 L 15.976562 173.375 Z M 15.976562 173.378906 "/>
<path style=" stroke:none;fill-rule:nonzero;fill:rgb(1.176471%,52.941176%,32.941176%);fill-opacity:1;" d="M 89.660156 54.8125 L 98.507812 52.945312 L 98.507812 34.90625 L 89.660156 37.269531 Z M 89.660156 177.246094 L 98.507812 179.628906 L 98.507812 161.570312 L 89.660156 159.6875 Z M 89.660156 177.246094 "/>
</g>
</svg>
