<?xml version="1.0" encoding="UTF-8"?>
<svg xmlns="http://www.w3.org/2000/svg" xmlns:xlink="http://www.w3.org/1999/xlink" width="375px" height="375px" viewBox="0 0 375 375" version="1.1">
<g id="surface1">
<path style=" stroke:none;fill-rule:nonzero;fill:rgb(0%,47.843137%,80%);fill-opacity:1;" d="M 0 187.5 L 0 0 L 375 0 L 375 375 L 0 375 "/>
<path style=" stroke:none;fill-rule:nonzero;fill:rgb(100%,100%,100%);fill-opacity:1;" d="M 82.21875 188.15625 L 82.21875 203.4375 L 130.96875 203.4375 L 130.96875 342.1875 L 165.5625 342.1875 L 165.5625 203.4375 L 214.3125 203.4375 L 214.3125 188.4375 C 214.3125 180 214.3125 173.15625 213.9375 172.96875 C 213.9375 172.6875 184.21875 172.59375 148.125 172.59375 L 82.5 172.875 L 82.5 188.25 Z M 301.3125 172.5 C 310.875 174.75 318.1875 179.0625 324.75 185.90625 C 328.21875 189.65625 333.375 196.21875 333.75 197.90625 C 333.75 198.46875 317.53125 209.4375 307.6875 215.53125 C 307.3125 215.8125 305.8125 214.21875 304.3125 211.78125 C 299.4375 204.84375 294.46875 201.84375 286.6875 201.28125 C 275.4375 200.53125 267.9375 206.4375 267.9375 216.28125 C 267.9375 219.28125 268.5 220.96875 269.625 223.40625 C 272.15625 228.5625 276.84375 231.65625 291.375 238.03125 C 318.1875 249.5625 329.8125 257.15625 336.84375 268.03125 C 344.8125 280.21875 346.59375 299.34375 341.25 313.6875 C 335.25 329.34375 320.625 339.9375 299.71875 343.40625 C 293.15625 344.53125 278.15625 344.34375 271.125 343.125 C 256.125 340.3125 241.78125 332.8125 232.96875 323.15625 C 229.5 319.40625 222.84375 309.375 223.21875 308.71875 L 226.78125 306.46875 L 240.84375 298.3125 L 251.4375 292.125 L 253.875 295.40625 C 256.96875 300.28125 263.90625 306.84375 267.9375 309.09375 C 280.125 315.375 296.4375 314.53125 304.5 307.21875 C 307.96875 304.03125 309.46875 300.65625 309.46875 295.96875 C 309.46875 291.65625 308.8125 289.6875 306.65625 286.40625 C 303.65625 282.28125 297.65625 278.90625 280.78125 271.40625 C 261.375 263.15625 253.125 257.90625 245.4375 249.84375 C 241.03125 244.96875 237 237.375 235.125 231.09375 C 233.71875 225.65625 233.25 212.34375 234.5625 207 C 238.59375 188.25 252.75 175.125 273 171.375 C 279.5625 170.0625 295.03125 170.625 301.5 172.3125 Z M 301.3125 172.5 "/>
</g>
</svg>
